<?xml version="1.0" encoding="iso-8859-1"?>
<!--Generator: Adobe Illustrator 16.0.0, SVG Export Plug-In . SVG Version: 6.00 Build 0)-->
<!DOCTYPE svg PUBLIC "-//W3C//DTD SVG 1.1//EN" "http://www.w3.org/Graphics/SVG/1.1/DTD/svg11.dtd">
<!--License: CC0. Made by SVG Repo: https://www.svgrepo.com/svg/94430/unlocked-security-of-credit-transaction-->
<svg version="1.1" id="Capa_1" xmlns="http://www.w3.org/2000/svg" xmlns:xlink="http://www.w3.org/1999/xlink" x="0px" y="0px" width="934.8px" height="934.8px" viewBox="0 0 934.8 934.8" style="enable-background:new 0 0 934.8 934.8;" xml:space="preserve">
  <g>
    <g>
      <path d="M0,82.4v32.2h816.6V82.4c0-27.6-22.399-50-50-50H50C22.4,32.4,0,54.8,0,82.4z"/>
      <path d="M0,487.6c0,27.6,22.4,50,50,50h416.3c0.8-29.7,25.1-53.601,55-53.601h46v-15.8c0-38.5-31.3-69.7-69.7-69.7h-2.5
			c-33,0-61.7,23.4-68.3,55.7c-2.5,12.3-9.2,23.5-18.8,31.4c-9.8,8.1-22.2,12.6-34.9,12.6H370.2c-16.4,0-31.9-7.3-42.301-20
			C317.5,465.5,313.3,449,316.5,432.9c8-40.8,30.2-78,62.399-104.7c16-13.3,34-23.7,53.4-30.9c20.1-7.4,41.3-11.2,62.9-11.2h2.5
			c24.6,0,48.399,4.8,70.899,14.3c21.7,9.2,41.2,22.3,57.9,39c16.7,16.7,29.8,36.2,39,57.899c9.5,22.5,14.3,46.301,14.3,70.9V484
			h137V197.7H0V487.6z M51,460.6c0-13.301,10.7-24,24-24h129.8c13.3,0,24,10.699,24,24v2.1c0,13.3-10.7,24-24,24H75
			c-13.3,0-24-10.7-24-24V460.6z"/>
      <path d="M649.6,484.1v-15.801c0-84-68.1-152.1-152.1-152.1H495c-73.8,0-135.5,52.8-149.2,122.6c-3,15.301,8.7,29.5,24.3,29.5h2.9
			c11.899,0,21.899-8.5,24.3-20.1c9.3-45.4,49.6-79.7,97.7-79.7h2.5c55.1,0,99.7,44.7,99.7,99.7V484H649.6V484.1z"/>
      <path d="M909.8,514.1h-93.2h-137h-15h-15h-52.3h-15h-15h-46c-13.3,0-24.2,10.399-25,23.6c0,0.5,0,0.9,0,1.4v338.3
			c0,13.8,11.2,25,25,25h388.5c13.8,0,25-11.2,25-25V539.1C934.8,525.2,923.6,514.1,909.8,514.1z M741.7,727.4v73.399
			c0,8.801-7.2,16-16,16h-20.301c-8.8,0-16-7.199-16-16V727.4c-10.8-4.9-19.899-12.7-26.399-22.5c-6.101-9.2-9.9-20-10.5-31.7
			c-0.101-1.1-0.101-2.2-0.101-3.2c0-13.899,4.5-26.8,12.2-37.3c4.2-5.7,9.2-10.6,15-14.6c10.2-7.101,22.601-11.2,35.9-11.2
			c34.8,0,63.1,28.2,63.1,63.1C778.6,695.5,763.5,717.4,741.7,727.4z"/>
    </g>
  </g>
</svg>
